<mxfile host="app.diagrams.net" modified="2021-05-06T03:31:56.749Z" agent="5.0 (Windows NT 10.0; Win64; x64) AppleWebKit/537.36 (KHTML, like Gecko) Chrome/90.0.4430.93 Safari/537.36" etag="z363GYEsT7Bt2vTeON0f" version="14.6.10" type="github">
  <diagram id="fiz6SLrRXvFOD1ExDUVD" name="第 1 页">
    <mxGraphModel dx="1381" dy="952" grid="0" gridSize="10" guides="1" tooltips="1" connect="1" arrows="1" fold="1" page="0" pageScale="1" pageWidth="827" pageHeight="1169" math="0" shadow="0">
      <root>
        <mxCell id="0" />
        <mxCell id="1" parent="0" />
        <mxCell id="1p3lYHxIzAYwEaIGaL1E-1" value="用户" style="rounded=0;whiteSpace=wrap;html=1;" vertex="1" parent="1">
          <mxGeometry x="179" y="109" width="120" height="60" as="geometry" />
        </mxCell>
        <mxCell id="1p3lYHxIzAYwEaIGaL1E-2" value="用户名" style="ellipse;whiteSpace=wrap;html=1;" vertex="1" parent="1">
          <mxGeometry x="139" y="-121" width="120" height="80" as="geometry" />
        </mxCell>
        <mxCell id="1p3lYHxIzAYwEaIGaL1E-3" value="问题" style="rounded=0;whiteSpace=wrap;html=1;" vertex="1" parent="1">
          <mxGeometry x="204" y="824" width="120" height="60" as="geometry" />
        </mxCell>
        <mxCell id="1p3lYHxIzAYwEaIGaL1E-5" value="悬赏贴" style="rounded=0;whiteSpace=wrap;html=1;" vertex="1" parent="1">
          <mxGeometry x="197" y="1758" width="120" height="60" as="geometry" />
        </mxCell>
        <mxCell id="1p3lYHxIzAYwEaIGaL1E-6" value="用户账号" style="ellipse;whiteSpace=wrap;html=1;" vertex="1" parent="1">
          <mxGeometry x="299" y="-111" width="120" height="80" as="geometry" />
        </mxCell>
        <mxCell id="1p3lYHxIzAYwEaIGaL1E-7" value="用户密码" style="ellipse;whiteSpace=wrap;html=1;" vertex="1" parent="1">
          <mxGeometry x="419" y="-6" width="120" height="80" as="geometry" />
        </mxCell>
        <mxCell id="1p3lYHxIzAYwEaIGaL1E-8" value="用户标识" style="ellipse;whiteSpace=wrap;html=1;" vertex="1" parent="1">
          <mxGeometry x="-51" y="-41" width="120" height="80" as="geometry" />
        </mxCell>
        <mxCell id="1p3lYHxIzAYwEaIGaL1E-9" value="问题内容" style="ellipse;whiteSpace=wrap;html=1;" vertex="1" parent="1">
          <mxGeometry x="224.3" y="499" width="120" height="80" as="geometry" />
        </mxCell>
        <mxCell id="1p3lYHxIzAYwEaIGaL1E-10" value="问题标题" style="ellipse;whiteSpace=wrap;html=1;" vertex="1" parent="1">
          <mxGeometry x="384" y="514" width="120" height="80" as="geometry" />
        </mxCell>
        <mxCell id="1p3lYHxIzAYwEaIGaL1E-11" value="问题作者" style="ellipse;whiteSpace=wrap;html=1;" vertex="1" parent="1">
          <mxGeometry x="74" y="514" width="120" height="80" as="geometry" />
        </mxCell>
        <mxCell id="1p3lYHxIzAYwEaIGaL1E-12" value="点赞数量" style="ellipse;whiteSpace=wrap;html=1;" vertex="1" parent="1">
          <mxGeometry x="-36" y="589" width="120" height="80" as="geometry" />
        </mxCell>
        <mxCell id="1p3lYHxIzAYwEaIGaL1E-13" value="评论数量" style="ellipse;whiteSpace=wrap;html=1;" vertex="1" parent="1">
          <mxGeometry x="474" y="599" width="120" height="80" as="geometry" />
        </mxCell>
        <mxCell id="1p3lYHxIzAYwEaIGaL1E-14" value="评论内容" style="ellipse;whiteSpace=wrap;html=1;" vertex="1" parent="1">
          <mxGeometry x="554" y="674" width="120" height="80" as="geometry" />
        </mxCell>
        <mxCell id="1p3lYHxIzAYwEaIGaL1E-15" value="转发量" style="ellipse;whiteSpace=wrap;html=1;" vertex="1" parent="1">
          <mxGeometry x="-86" y="709" width="120" height="80" as="geometry" />
        </mxCell>
        <mxCell id="1p3lYHxIzAYwEaIGaL1E-23" value="悬赏内容" style="ellipse;whiteSpace=wrap;html=1;" vertex="1" parent="1">
          <mxGeometry x="80.08" y="1488" width="120" height="80" as="geometry" />
        </mxCell>
        <mxCell id="1p3lYHxIzAYwEaIGaL1E-24" value="悬赏标题" style="ellipse;whiteSpace=wrap;html=1;" vertex="1" parent="1">
          <mxGeometry x="297.3" y="1498" width="120" height="80" as="geometry" />
        </mxCell>
        <mxCell id="1p3lYHxIzAYwEaIGaL1E-25" value="悬赏作者" style="ellipse;whiteSpace=wrap;html=1;" vertex="1" parent="1">
          <mxGeometry x="-83" y="1618" width="120" height="80" as="geometry" />
        </mxCell>
        <mxCell id="1p3lYHxIzAYwEaIGaL1E-26" value="是否可接" style="ellipse;whiteSpace=wrap;html=1;" vertex="1" parent="1">
          <mxGeometry x="447" y="1598" width="120" height="80" as="geometry" />
        </mxCell>
        <mxCell id="1p3lYHxIzAYwEaIGaL1E-28" value="" style="line;strokeWidth=2;html=1;rotation=45;" vertex="1" parent="1">
          <mxGeometry x="39" y="74" width="160" height="10" as="geometry" />
        </mxCell>
        <mxCell id="1p3lYHxIzAYwEaIGaL1E-29" value="" style="line;strokeWidth=2;html=1;rotation=75;" vertex="1" parent="1">
          <mxGeometry x="139" y="29" width="160" height="10" as="geometry" />
        </mxCell>
        <mxCell id="1p3lYHxIzAYwEaIGaL1E-30" value="" style="line;strokeWidth=2;html=1;rotation=-240;" vertex="1" parent="1">
          <mxGeometry x="229" y="29" width="160" height="10" as="geometry" />
        </mxCell>
        <mxCell id="1p3lYHxIzAYwEaIGaL1E-31" value="" style="line;strokeWidth=2;html=1;rotation=-210;" vertex="1" parent="1">
          <mxGeometry x="289" y="99" width="160" height="10" as="geometry" />
        </mxCell>
        <mxCell id="1p3lYHxIzAYwEaIGaL1E-32" value="" style="line;strokeWidth=2;html=1;rotation=30;" vertex="1" parent="1">
          <mxGeometry x="14" y="814" width="199.4" height="10" as="geometry" />
        </mxCell>
        <mxCell id="1p3lYHxIzAYwEaIGaL1E-34" value="" style="line;strokeWidth=2;html=1;rotation=60;" vertex="1" parent="1">
          <mxGeometry x="27.409999999999997" y="741.95" width="231.21" height="10" as="geometry" />
        </mxCell>
        <mxCell id="1p3lYHxIzAYwEaIGaL1E-35" value="" style="line;strokeWidth=2;html=1;rotation=80;" vertex="1" parent="1">
          <mxGeometry x="77.08" y="699.88" width="241.8" height="10" as="geometry" />
        </mxCell>
        <mxCell id="1p3lYHxIzAYwEaIGaL1E-36" value="" style="line;strokeWidth=2;html=1;rotation=90;" vertex="1" parent="1">
          <mxGeometry x="164.6" y="703.77" width="239.4" height="10" as="geometry" />
        </mxCell>
        <mxCell id="1p3lYHxIzAYwEaIGaL1E-37" value="" style="line;strokeWidth=2;html=1;rotation=-240;" vertex="1" parent="1">
          <mxGeometry x="228.55" y="698.8" width="260" height="10" as="geometry" />
        </mxCell>
        <mxCell id="1p3lYHxIzAYwEaIGaL1E-38" value="" style="line;strokeWidth=2;html=1;rotation=-225;" vertex="1" parent="1">
          <mxGeometry x="294.3" y="744" width="239.4" height="10" as="geometry" />
        </mxCell>
        <mxCell id="1p3lYHxIzAYwEaIGaL1E-39" value="" style="line;strokeWidth=2;html=1;rotation=-200;" vertex="1" parent="1">
          <mxGeometry x="334.6" y="779" width="239.4" height="10" as="geometry" />
        </mxCell>
        <mxCell id="1p3lYHxIzAYwEaIGaL1E-40" value="经验帖" style="rounded=0;whiteSpace=wrap;html=1;" vertex="1" parent="1">
          <mxGeometry x="207" y="1373" width="120" height="60" as="geometry" />
        </mxCell>
        <mxCell id="1p3lYHxIzAYwEaIGaL1E-41" value="经验内容" style="ellipse;whiteSpace=wrap;html=1;" vertex="1" parent="1">
          <mxGeometry x="227.3" y="1048" width="120" height="80" as="geometry" />
        </mxCell>
        <mxCell id="1p3lYHxIzAYwEaIGaL1E-42" value="经验标题" style="ellipse;whiteSpace=wrap;html=1;" vertex="1" parent="1">
          <mxGeometry x="387" y="1063" width="120" height="80" as="geometry" />
        </mxCell>
        <mxCell id="1p3lYHxIzAYwEaIGaL1E-43" value="经验作者" style="ellipse;whiteSpace=wrap;html=1;" vertex="1" parent="1">
          <mxGeometry x="77" y="1063" width="120" height="80" as="geometry" />
        </mxCell>
        <mxCell id="1p3lYHxIzAYwEaIGaL1E-44" value="点赞数量" style="ellipse;whiteSpace=wrap;html=1;" vertex="1" parent="1">
          <mxGeometry x="-33" y="1138" width="120" height="80" as="geometry" />
        </mxCell>
        <mxCell id="1p3lYHxIzAYwEaIGaL1E-45" value="评论数量" style="ellipse;whiteSpace=wrap;html=1;" vertex="1" parent="1">
          <mxGeometry x="477" y="1148" width="120" height="80" as="geometry" />
        </mxCell>
        <mxCell id="1p3lYHxIzAYwEaIGaL1E-46" value="评论内容" style="ellipse;whiteSpace=wrap;html=1;" vertex="1" parent="1">
          <mxGeometry x="557" y="1223" width="120" height="80" as="geometry" />
        </mxCell>
        <mxCell id="1p3lYHxIzAYwEaIGaL1E-47" value="转发量" style="ellipse;whiteSpace=wrap;html=1;" vertex="1" parent="1">
          <mxGeometry x="-83" y="1258" width="120" height="80" as="geometry" />
        </mxCell>
        <mxCell id="1p3lYHxIzAYwEaIGaL1E-48" value="" style="line;strokeWidth=2;html=1;rotation=30;" vertex="1" parent="1">
          <mxGeometry x="17" y="1363" width="199.4" height="10" as="geometry" />
        </mxCell>
        <mxCell id="1p3lYHxIzAYwEaIGaL1E-49" value="" style="line;strokeWidth=2;html=1;rotation=60;" vertex="1" parent="1">
          <mxGeometry x="30.409999999999997" y="1290.95" width="231.21" height="10" as="geometry" />
        </mxCell>
        <mxCell id="1p3lYHxIzAYwEaIGaL1E-50" value="" style="line;strokeWidth=2;html=1;rotation=80;" vertex="1" parent="1">
          <mxGeometry x="80.08" y="1248.88" width="241.8" height="10" as="geometry" />
        </mxCell>
        <mxCell id="1p3lYHxIzAYwEaIGaL1E-51" value="" style="line;strokeWidth=2;html=1;rotation=90;" vertex="1" parent="1">
          <mxGeometry x="167.6" y="1252.77" width="239.4" height="10" as="geometry" />
        </mxCell>
        <mxCell id="1p3lYHxIzAYwEaIGaL1E-52" value="" style="line;strokeWidth=2;html=1;rotation=-240;" vertex="1" parent="1">
          <mxGeometry x="231.55" y="1247.8" width="260" height="10" as="geometry" />
        </mxCell>
        <mxCell id="1p3lYHxIzAYwEaIGaL1E-53" value="" style="line;strokeWidth=2;html=1;rotation=-225;" vertex="1" parent="1">
          <mxGeometry x="297.3" y="1293" width="239.4" height="10" as="geometry" />
        </mxCell>
        <mxCell id="1p3lYHxIzAYwEaIGaL1E-54" value="" style="line;strokeWidth=2;html=1;rotation=-200;" vertex="1" parent="1">
          <mxGeometry x="337.6" y="1328" width="239.4" height="10" as="geometry" />
        </mxCell>
        <mxCell id="1p3lYHxIzAYwEaIGaL1E-55" value="" style="line;strokeWidth=2;html=1;rotation=30;" vertex="1" parent="1">
          <mxGeometry x="7.600000000000001" y="1728" width="199.4" height="10" as="geometry" />
        </mxCell>
        <mxCell id="1p3lYHxIzAYwEaIGaL1E-56" value="" style="line;strokeWidth=2;html=1;rotation=70;" vertex="1" parent="1">
          <mxGeometry x="97.89999999999999" y="1653" width="199.4" height="10" as="geometry" />
        </mxCell>
        <mxCell id="1p3lYHxIzAYwEaIGaL1E-57" value="" style="line;strokeWidth=2;html=1;rotation=-240;" vertex="1" parent="1">
          <mxGeometry x="211" y="1663" width="199.4" height="10" as="geometry" />
        </mxCell>
        <mxCell id="1p3lYHxIzAYwEaIGaL1E-58" value="" style="line;strokeWidth=2;html=1;rotation=-210;" vertex="1" parent="1">
          <mxGeometry x="307.6" y="1728" width="199.4" height="10" as="geometry" />
        </mxCell>
      </root>
    </mxGraphModel>
  </diagram>
</mxfile>
